<svg width="52" height="45" viewBox="0 0 52 45" fill="none" xmlns="http://www.w3.org/2000/svg">
<path d="M9.33468 44.2067L35.3885 36.3278L43.5296 40.134C44.8147 40.7349 46.2294 41.0847 47.6732 41.1452L48.6405 41.141C49.9106 41.196 51.0026 40.5792 51.4932 39.5298C51.9838 38.4804 51.7569 37.247 50.9366 36.3486L50.2489 35.5228C49.3111 34.4937 48.1374 33.6334 46.8503 33.0316L38.7093 29.2254L28.0495 4.18814C27.5066 2.91309 26.4808 1.87089 25.1579 1.2524L22.837 0.167278C22.4746 -0.00215361 22.0589 0.0198337 21.7537 0.223437C21.4467 0.426044 21.2958 0.779675 21.366 1.14566L25.5017 23.4702C22.4284 22.2346 19.8226 21.2889 16.651 20.1393L13.4 18.9633L11.7259 10.6054C11.6569 10.268 11.4177 9.97446 11.085 9.81892L9.10469 8.89307C8.80569 8.75328 8.46325 8.74247 8.17714 8.864C7.88823 8.98644 7.68829 9.22827 7.63161 9.51984L5.92035 18.2229L0.339516 25.1168C0.293758 25.1733 0.255978 25.2335 0.226091 25.2974C0.132271 25.4981 0.116265 25.7286 0.184132 25.955C0.276297 26.2534 0.504181 26.5092 0.803179 26.649L2.78346 27.5749C3.11615 27.7304 3.49676 27.7266 3.79603 27.5615L11.2769 23.4838L14.2739 25.229C17.1858 26.9236 19.5803 28.3158 22.4994 29.8817L2.72091 41.0256C2.39422 41.2083 2.22241 41.5499 2.2627 41.9128C2.30132 42.2792 2.55101 42.6123 2.91341 42.7817L5.23436 43.8669C6.55707 44.4855 8.01372 44.6061 9.33468 44.2067Z" fill="white"/>
</svg>
